<svg version="1.1" xmlns="http://www.w3.org/2000/svg" xmlns:xlink="http://www.w3.org/1999/xlink" width="27.65614" height="27.6294" viewBox="0,0,27.65614,27.6294"><g transform="translate(-226.09264,-166.1853)"><g data-paper-data="{&quot;isPaintingLayer&quot;:true}" fill="#ffffff" fill-rule="nonzero" stroke="none" stroke-width="0" stroke-linecap="butt" stroke-linejoin="miter" stroke-miterlimit="10" stroke-dasharray="" stroke-dashoffset="0" style="mix-blend-mode: normal"><path d="M236.08176,182.61954c0,-1.63421 0,-4.33768 0,-5.25038c0,-0.59463 0.7199,-1.28741 1.3308,-1.28741c0.89055,0 3.43486,0 5.06507,0c0.84233,0 1.44063,0.44291 1.44063,1.1021c0,1.56102 0,4.33491 0,5.31215c0,0.68899 -0.59759,1.42225 -1.44063,1.42225c-1.64779,0 -4.23329,0 -5.12684,0c-0.6109,0 -1.26902,-0.53153 -1.26902,-1.29871z"/><path d="M245.91229,182.61954c0,-1.63421 0,-4.33768 0,-5.25038c0,-0.59463 0.7199,-1.28741 1.33079,-1.28741c0.89055,0 3.43486,0 5.06507,0c0.84233,0 1.44063,0.44291 1.44063,1.1021c0,1.56102 0,4.33491 0,5.31215c0,0.68899 -0.59759,1.42225 -1.44063,1.42225c-1.64779,0 -4.23329,0 -5.12684,0c-0.6109,0 -1.26902,-0.53153 -1.26902,-1.29871z"/><path d="M226.09265,182.61954c0,-1.63421 0,-4.33768 0,-5.25038c0,-0.59463 0.7199,-1.28741 1.33079,-1.28741c0.89055,0 3.43486,0 5.06507,0c0.84233,0 1.44063,0.44291 1.44063,1.1021c0,1.56102 0,4.33491 0,5.31215c0,0.68899 -0.59759,1.42225 -1.44063,1.42225c-1.64779,0 -4.23329,0 -5.12684,0c-0.6109,0 -1.26902,-0.53153 -1.26902,-1.29871z"/><g><path d="M237.28781,166.1853c1.63421,0 4.33768,0 5.25038,0c0.59463,0 1.28741,0.7199 1.28741,1.33079c0,0.89055 0,3.43486 0,5.06507c0,0.84233 -0.44291,1.44063 -1.1021,1.44063c-1.56102,0 -4.3349,0 -5.31214,0c-0.68899,0 -1.42225,-0.59759 -1.42225,-1.44063c0,-1.64779 0,-4.23329 0,-5.12684c0,-0.6109 0.53153,-1.26902 1.2987,-1.26902z"/><path d="M253.68701,167.60875c0,0.89355 0,3.47905 0,5.12684c0,0.84303 -0.73326,1.44063 -1.42224,1.44063c-0.97724,0 -3.75113,0 -5.31215,0c-0.65919,0 -1.1021,-0.59829 -1.1021,-1.44063c0,-1.63021 0,-4.17452 0,-5.06507c0,-0.6109 0.69278,-1.3308 1.28741,-1.3308c0.9127,0 3.61617,0 5.25038,0c0.76718,0 1.2987,0.65813 1.2987,1.26902z"/><path d="M227.45312,166.33972c1.63421,0 4.33768,0 5.25038,0c0.59463,0 1.28741,0.7199 1.28741,1.3308c0,0.89055 0,3.43486 0,5.06507c0,0.84233 -0.44291,1.44063 -1.1021,1.44063c-1.56102,0 -4.3349,0 -5.31214,0c-0.68899,0 -1.42225,-0.59759 -1.42225,-1.44063c0,-1.64779 0,-4.23329 0,-5.12684c0,-0.6109 0.53153,-1.26902 1.29871,-1.26902z"/></g><g><path d="M237.28781,185.97821c1.63421,0 4.33768,0 5.25038,0c0.59463,0 1.28741,0.7199 1.28741,1.33079c0,0.89055 0,3.43486 0,5.06507c0,0.84233 -0.44291,1.44063 -1.1021,1.44063c-1.56102,0 -4.3349,0 -5.31214,0c-0.68899,0 -1.42225,-0.59759 -1.42225,-1.44063c0,-1.64779 0,-4.23329 0,-5.12684c0,-0.6109 0.53153,-1.26902 1.2987,-1.26902z"/><path d="M252.38831,193.66027c-1.63421,0 -4.33768,0 -5.25038,0c-0.59463,0 -1.28741,-0.7199 -1.28741,-1.33079c0,-0.89055 0,-3.43486 0,-5.06507c0,-0.84233 0.44291,-1.44063 1.1021,-1.44063c1.56102,0 4.33491,0 5.31215,0c0.68899,0 1.42224,0.59759 1.42224,1.44063c0,1.64779 0,4.23329 0,5.12684c0,0.6109 -0.53153,1.26902 -1.2987,1.26902z"/><path d="M226.15442,192.39125c0,-0.89355 0,-3.47905 0,-5.12684c0,-0.84303 0.73326,-1.44063 1.42225,-1.44063c0.97724,0 3.75112,0 5.31214,0c0.65919,0 1.1021,0.59829 1.1021,1.44063c0,1.63021 0,4.17452 0,5.06507c0,0.6109 -0.69278,1.33079 -1.28741,1.33079c-0.9127,0 -3.61617,0 -5.25038,0c-0.76718,0 -1.29871,-0.65813 -1.29871,-1.26902z"/></g></g></g></svg>