<svg version="1.1" xmlns="http://www.w3.org/2000/svg" xmlns:xlink="http://www.w3.org/1999/xlink" width="244.5" height="244.5" viewBox="0,0,244.5,244.5"><g transform="translate(-117.75,-57.75)"><g data-paper-data="{&quot;isPaintingLayer&quot;:true}" fill="none" fill-rule="nonzero" stroke="#ffffff" stroke-width="12.5" stroke-linecap="butt" stroke-linejoin="miter" stroke-miterlimit="10" stroke-dasharray="" stroke-dashoffset="0" style="mix-blend-mode: normal"><path d="M209.66667,180c0,-16.75264 13.5807,-30.33334 30.33334,-30.33334c16.75264,0 30.33333,13.5807 30.33333,30.33334c0,16.75264 -13.58069,30.33334 -30.33333,30.33334c-16.75264,0 -30.33334,-13.5807 -30.33334,-30.33334z"/><g><g><path d="M187.45361,150.48451c1.76471,-3.09342 -13.40314,-10.83129 -13.67839,-17.19016c-0.05981,-1.38178 0.50513,-3.71246 0.50513,-3.71246l14.77337,-15.116c0,0 3.95808,-1.0819 5.49905,0.0386c5.34085,3.88351 14.28718,14.05567 16.05675,13.07133"/><path d="M269.39048,127.24249c1.76957,0.98434 10.7159,-9.18782 16.05675,-13.07133c1.54098,-1.1205 5.49905,-0.03859 5.49905,-0.03859l14.77337,15.116c0,0 0.56495,2.33068 0.50513,3.71246c-0.27524,6.35887 -15.4431,14.09673 -13.67839,17.19016" data-paper-data="{&quot;index&quot;:null}"/></g><path d="M210.60953,232.59085c-1.76957,-0.98434 -10.7159,9.18782 -16.05675,13.07133c-1.54098,1.1205 -5.49905,0.0386 -5.49905,0.0386l-14.77337,-15.11601c0,0 -0.56494,-2.33068 -0.50513,-3.71246c0.27525,-6.35887 15.44311,-14.09673 13.67839,-17.19016" data-paper-data="{&quot;index&quot;:null}"/><path d="M292.54639,210.01549c-1.76472,3.09342 13.40315,10.8313 13.67839,17.19016c0.05981,1.38178 -0.50513,3.71245 -0.50513,3.71245l-14.77337,15.11601c0,0 -3.95808,1.0819 -5.49905,-0.03859c-5.34085,-3.88351 -14.28718,-14.05568 -16.05675,-13.07133" data-paper-data="{&quot;index&quot;:null}"/></g><g><g><path d="M223.77362,121.9979c3.43522,-0.93954 -1.81857,-17.13634 2.4832,-21.82736c0.93477,-1.01936 2.98229,-2.26792 2.98229,-2.26792l21.13498,-0.24228c0,0 3.5638,2.03377 3.86113,3.91571c1.03049,6.52261 0.1637,20.04142 2.11101,20.59666"/><path d="M298.14633,163.50142c0.55524,1.94731 14.07406,1.08052 20.59666,2.11101c1.88194,0.29732 3.91571,3.86113 3.91571,3.86113l-0.24228,21.13498c0,0 -1.24856,2.04751 -2.26792,2.98229c-4.69102,4.30177 -20.88782,-0.95203 -21.82736,2.4832" data-paper-data="{&quot;index&quot;:null}"/></g><path d="M182.08938,196.42955c-0.55524,-1.94731 -14.07406,-1.08052 -20.59666,-2.11101c-1.88194,-0.29732 -3.91571,-3.86113 -3.91571,-3.86113l0.24228,-21.13498c0,0 1.24856,-2.04751 2.26792,-2.98229c4.69102,-4.30177 20.88782,0.95203 21.82736,-2.4832" data-paper-data="{&quot;index&quot;:null}"/><path d="M255.99068,238.40447c-3.43522,0.93954 1.81857,17.13634 -2.4832,21.82736c-0.93477,1.01936 -2.98229,2.26792 -2.98229,2.26792l-21.13498,0.24228c0,0 -3.5638,-2.03377 -3.86113,-3.91571c-1.03049,-6.52261 -0.1637,-20.04142 -2.11101,-20.59666" data-paper-data="{&quot;index&quot;:null}"/></g><path d="M181.33985,165.8306c1.36344,-5.66486 3.52614,-11.01839 6.36213,-15.93458"/><path d="M208.90942,128.28367c4.90219,-2.95341 10.25855,-5.22952 15.93954,-6.69878"/><path d="M253.45478,121.17247c1.55676,0.35457 3.09062,0.76936 4.59899,1.24177c4.34368,1.36041 8.47604,3.19872 12.33548,5.45334"/><path d="M291.80236,148.50259c2.87889,4.69429 5.13359,9.81271 6.64855,15.23974"/><path d="M298.61729,195.64927c-1.34089,5.00657 -3.64305,10.08968 -6.15021,14.49307"/><path d="M269.7542,232.83158c-4.19802,2.38442 -14.46476,5.97109 -15.14119,6.13526"/><path d="M223.97328,238.51488c-4.81851,-1.32432 -9.3958,-3.56453 -13.65142,-5.9735"/><path d="M187.62306,209.96675c-2.3697,-4.13292 -4.59764,-9.23974 -5.94268,-13.91264"/><path d="M124,273.79999c0,-47.60276 0,-157.41215 0,-185c0,-12.28363 13.08919,-24.79999 24.29999,-24.79999c26.11572,0 132.41323,0 182,0c15.68828,0 25.70001,8.37514 25.70001,21.79999c0,47.00898 0,155.93493 0,184c0,12.87341 -10.0035,26.20001 -25.70001,26.20001c-50.01557,0 -157.83363,0 -184,0c-11.2108,0 -22.29999,-8.53808 -22.29999,-22.20001z"/></g></g></svg>