<svg version="1.1" xmlns="http://www.w3.org/2000/svg" xmlns:xlink="http://www.w3.org/1999/xlink" width="244.5" height="244.5" viewBox="0,0,244.5,244.5"><g transform="translate(-117.75,-57.75)"><g data-paper-data="{&quot;isPaintingLayer&quot;:true}" fill="none" fill-rule="nonzero" stroke="#ffffff" stroke-width="12.5" stroke-linecap="butt" stroke-linejoin="miter" stroke-miterlimit="10" stroke-dasharray="" stroke-dashoffset="0" style="mix-blend-mode: normal"><path d="M172.66667,180c0,-37.18718 30.14617,-67.33335 67.33335,-67.33335c37.18718,0 67.33332,30.14617 67.33332,67.33335c0,37.18718 -30.14615,67.33335 -67.33332,67.33335c-37.18718,0 -67.33335,-30.14617 -67.33335,-67.33335z"/><path d=""/><path d="M270.38925,127.86758"/><path d="M124,273.79999c0,-47.60276 0,-157.41215 0,-185c0,-12.28363 13.08919,-24.79999 24.29999,-24.79999c26.11572,0 132.41323,0 182,0c15.68828,0 25.70001,8.37514 25.70001,21.79999c0,47.00898 0,155.93493 0,184c0,12.87341 -10.0035,26.20001 -25.70001,26.20001c-50.01557,0 -157.83363,0 -184,0c-11.2108,0 -22.29999,-8.53808 -22.29999,-22.20001z"/></g></g></svg>